P1
50 50
00000000000000000000000000000000000000000000000000
01010101010101010101010101010101010101010101010100
00101010101010101010101010101010101010101010101010
01010101010101010101010101010101010101010101010100
00101010101010101010101010101010101010101010101010
01010101010101010101010101010101010101010101010100
00101010101010101010101010101010101010101010101010
01010101010101010101010101010101010101010101010100
00101010101010101010101010101010101010101010101000
01010101010101010101010101010101010101010101010000
00101010101010101010101010101010101010101010101010
01010101010101010101010101010101010101010101010100
00101010101010101010101010101010101010101010101010
01010101010101010101010101010101010101010101010100
00101010101010101010101010101010101010101010101000
01010101010101010101010101010101010101010101010000
00101010101010101010101010101010101010101010101010
01010101010101010101010101010101010101010101010100
00101010101010101010101010101010101010101010101010
01010101010101010101010101010101010101010101010100
00101010101010101010101010101010101010101010101000
01010101010101010101010101010101010101010101010000
00101010101010101010101010101010101010101010101010
01010101010101010101010101010101010101010101010100
00101010101010101010101010101010101010101010101010
01010101010101010101010101010101010101010101010100
00101010101010101010101010101010101010101010101000
01010101010101010101010101010101010101010101010000
00101010101010101010101010101010101010101010101000
01010101010101010101010101010101010101010101010100
00101010101010101010101010101010101010101010101010
00010101010101010101010101010101010101010101010100
00101010101010101010101010101010101010101010101010
01010101010101010101010101010101010101010101010100
00101010101010101010101010101010101010101010101010
01010101010101010101010101010101010101010101010100
00101010101010101010101010101010101010101010101010
01010101010101010101010101010101010101010101010100
00101010101010101010101010101010101010101010101010
01010101010101010101010101010101010101010101010100
00101010101010101010101010101010101010101010101010
01010101010101010101010101010101010101010101010100
00101010101010101010101010101010101010101010101010
01010101010101010101010101010101010101010101010100
00101010101010101010101010101010101010101010101010
01010101010101010101010101010101010101010101010100
00101010101010101010101010101010101010101010101010
01010101010101010101010101010101010101010101010100
00101010101010101010101010101010101010101010101010
01010101010101010101010101010101010101010101010100