P2
2 3
255
3 6
2 54
100 7
