P1
50 50
10101010101010101010101010101010101010101010101010
01010101010101010101010101010101010101010101010101
10101010101010101010101010101010101010101010101010
01010101010101010101010101010101010101010101010101
10101010101010101010101010101010101010101010101010
01010101010101010101010101010101010101010101010101
10101010101010101010101010101010101010101010101010
01010101010101010101010101010101010101010101010101
10101010101010101010101010101010101010101010101010
01010101010101010101010101010101010101010101010111
10101010101010101010101010101010101010101010101010
01010101010101010101010101010101010101010101010101
10101010101010101010101010101010101010101010101010
01010101010101010101010101010101010101010101010101
10101010101010101010101010101010101010101010101010
01010101010101010101010101010101010101010101010111
10101010101010101010101010101010101010101010101010
01010101010101010101010101010101010101010101010101
10101010101010101010101010101010101010101010101010
01010101010101010101010101010101010101010101010101
10101010101010101010101010101010101010101010101010
01010101010101010101010101010101010101010101010111
10101010101010101010101010101010101010101010101010
01010101010101010101010101010101010101010101010101
10101010101010101010101010101010101010101010101010
01010101010101010101010101010101010101010101010101
10101010101010101010101010101010101010101010101010
01010101010101010101010101010101010101010101010111
10101010101010101010101010101010101010101010101010
01010101010101010101010101010101010101010101010101
10101010101010101010101010101010101010101010101010
11010101010101010101010101010101010101010101010101
10101010101010101010101010101010101010101010101010
01010101010101010101010101010101010101010101010101
10101010101010101010101010101010101010101010101010
01010101010101010101010101010101010101010101010101
10101010101010101010101010101010101010101010101010
01010101010101010101010101010101010101010101010101
10101010101010101010101010101010101010101010101010
01010101010101010101010101010101010101010101010101
10101010101010101010101010101010101010101010101010
01010101010101010101010101010101010101010101010101
10101010101010101010101010101010101010101010101010
01010101010101010101010101010101010101010101010101
10101010101010101010101010101010101010101010101010
01010101010101010101010101010101010101010101010101
10101010101010101010101010101010101010101010101010
01010101010101010101010101010101010101010101010101
10101010101010101010101010101010101010101010101010
01010101010101010101010101010101010101010101010101
